{
  "accessors": [
    {
      "bufferView": 2,
      "componentType": 5126,
      "count": 36107,
      "max": [
        0.14550499618053436,
        0.054044999182224274,
        0.12028300017118454
      ],
      "min": [
        -0.13696900010108948,
        -0.06112299859523773,
        0.0006880000000819564
      ],
      "type": "VEC3"
    },
    {
      "bufferView": 2,
      "byteOffset": 433284,
      "componentType": 5126,
      "count": 36107,
      "max": [
        0.9995890259742737,
        0.9999947547912598,
        0.9999619722366333
      ],
      "min": [
        -0.9999454617500305,
        -0.99997478723526,
        -0.9999930262565613
      ],
      "type": "VEC3"
    },
    {
      "bufferView": 3,
      "componentType": 5126,
      "count": 36107,
      "max": [
        0.9990781545639038,
        1.0,
        0.9999905824661255,
        1.0
      ],
      "min": [
        -0.9999704957008362,
        -0.9938778877258301,
        -0.9998126029968262,
        -1.0
      ],
      "type": "VEC4"
    },
    {
      "bufferView": 1,
      "componentType": 5126,
      "count": 36107,
      "max": [
        0.911312997341156,
        0.9926109910011292
      ],
      "min": [
        0.006783999968320131,
        0.007389000151306391
      ],
      "type": "VEC2"
    },
    {
      "bufferView": 0,
      "componentType": 5125,
      "count": 209928,
      "type": "SCALAR"
    }
  ],
  "asset": {
    "extras": {
      "author": "Switch 3D (https://sketchfab.com/switch3d)",
      "license": "CC-BY-4.0 (http://creativecommons.org/licenses/by/4.0/)",
      "source": "https://sketchfab.com/3d-models/free-nike-space-hippie-04-grey-volt-sneaker-70954555f9134fb2b4b118a21ba15c86",
      "title": "[FREE] Nike Space Hippie 04 Grey Volt Sneaker"
    },
    "generator": "Sketchfab-12.66.0",
    "version": "2.0"
  },
  "bufferViews": [
    {
      "buffer": 0,
      "byteLength": 839712,
      "name": "floatBufferViews",
      "target": 34963
    },
    {
      "buffer": 0,
      "byteLength": 288856,
      "byteOffset": 839712,
      "byteStride": 8,
      "name": "floatBufferViews",
      "target": 34962
    },
    {
      "buffer": 0,
      "byteLength": 866568,
      "byteOffset": 1128568,
      "byteStride": 12,
      "name": "floatBufferViews",
      "target": 34962
    },
    {
      "buffer": 0,
      "byteLength": 577712,
      "byteOffset": 1995136,
      "byteStride": 16,
      "name": "floatBufferViews",
      "target": 34962
    }
  ],
  "buffers": [
    {
      "byteLength": 2572848,
      "uri": "scene.bin"
    }
  ],
  "images": [
    {
      "uri": "textures/SpaceHippie_RAW1002_defaultMat_baseColor.png"
    },
    {
      "uri": "textures/SpaceHippie_RAW1002_defaultMat_metallicRoughness.png"
    },
    {
      "uri": "textures/SpaceHippie_RAW1002_defaultMat_normal.png"
    }
  ],
  "materials": [
    {
      "doubleSided": true,
      "name": "SpaceHippie_RAW1002_defaultMat",
      "normalTexture": {
        "index": 2
      },
      "occlusionTexture": {
        "index": 1
      },
      "pbrMetallicRoughness": {
        "baseColorTexture": {
          "index": 0
        },
        "metallicRoughnessTexture": {
          "index": 1
        }
      }
    }
  ],
  "meshes": [
    {
      "name": "Object_0",
      "primitives": [
        {
          "attributes": {
            "NORMAL": 1,
            "POSITION": 0,
            "TANGENT": 2,
            "TEXCOORD_0": 3
          },
          "indices": 4,
          "material": 0,
          "mode": 4
        }
      ]
    }
  ],
  "nodes": [
    {
      "children": [
        1
      ],
      "matrix": [
        1.0,
        0.0,
        0.0,
        0.0,
        0.0,
        2.220446049250313e-16,
        -1.0,
        0.0,
        0.0,
        1.0,
        2.220446049250313e-16,
        0.0,
        0.0,
        0.0,
        0.0,
        1.0
      ],
      "name": "Sketchfab_model"
    },
    {
      "children": [
        2
      ],
      "name": "20220308_SpaceHippieVolt.obj.cleaner.materialmerger.gles"
    },
    {
      "mesh": 0,
      "name": "Object_2"
    }
  ],
  "samplers": [
    {
      "magFilter": 9729,
      "minFilter": 9987,
      "wrapS": 10497,
      "wrapT": 10497
    }
  ],
  "scene": 0,
  "scenes": [
    {
      "name": "Sketchfab_Scene",
      "nodes": [
        0
      ]
    }
  ],
  "textures": [
    {
      "sampler": 0,
      "source": 0
    },
    {
      "sampler": 0,
      "source": 1
    },
    {
      "sampler": 0,
      "source": 2
    }
  ]
}
